<?xml version="1.0" encoding="UTF-8" standalone="no"?>
<svg
   xmlns:dc="http://purl.org/dc/elements/1.1/"
   xmlns:cc="http://creativecommons.org/ns#"
   xmlns:rdf="http://www.w3.org/1999/02/22-rdf-syntax-ns#"
   xmlns:svg="http://www.w3.org/2000/svg"
   xmlns="http://www.w3.org/2000/svg"
   viewBox="0 0 59.569534 46"
   x="0px"
   y="0px"
   version="1.1"
   id="svg10"
   width="59.569534"
   height="46">
  <metadata
     id="metadata16">
    <rdf:RDF>
      <cc:Work
         rdf:about="">
        <dc:format>image/svg+xml</dc:format>
        <dc:type
           rdf:resource="http://purl.org/dc/dcmitype/StillImage" />
        <dc:title></dc:title>
      </cc:Work>
    </rdf:RDF>
  </metadata>
  <defs
     id="defs14" />
  <g
     data-name="31 Calendar"
     id="g4"
     transform="translate(-2,-9)">
    <path
       d="M 61.5181,49.4277 54.9814,15.81 54.9805,15.8087 A 3.0007,3.0007 0 0 0 52,13 H 47 V 11 A 2.0059,2.0059 0 0 0 45,9 h -4 a 2.0059,2.0059 0 0 0 -2,2 v 2 H 18 V 11 A 2.0059,2.0059 0 0 0 16,9 h -4 a 2.0059,2.0059 0 0 0 -2,2 v 2 H 5 a 3.0088,3.0088 0 0 0 -3,3 v 36 a 3.0088,3.0088 0 0 0 3,3 h 47 a 3.0016,3.0016 0 0 0 2.8148,-2 h 3.7584 a 3.0176,3.0176 0 0 0 2.9449,-3.5723 z M 41,11 h 4 v 5 c 0.04,2.59 -4.04,2.59 -4,0 z m -29,0 h 4 v 5 c 0.04,2.59 -4.04,2.59 -4,0 z m -7,4 h 5 v 1 a 4,4 0 0 0 8,0 v -1 h 21 v 1 a 4,4 0 0 0 8,0 v -1 h 5 a 1.0029,1.0029 0 0 1 1,1 v 8 H 4 V 16 A 1.0029,1.0029 0 0 1 5,15 Z M 52,53 H 5 A 1.0029,1.0029 0 0 1 4,52 V 26 h 49 v 26 a 1.0029,1.0029 0 0 1 -1,1 z m 6.5732,-2 H 55 V 26.3828 L 59.5552,49.81 A 1.0063,1.0063 0 0 1 58.5732,51 Z M 21.5,22 h 14 a 2.5,2.5 0 0 0 0,-5 h -14 a 2.5,2.5 0 0 0 0,5 z m 0,-3 h 14 a 0.5,0.5 0 0 1 0,1 h -14 a 0.5,0.5 0 0 1 0,-1 z M 19,28 h -5 a 1,1 0 0 0 -1,1 v 5 a 1,1 0 0 0 1,1 h 5 a 1,1 0 0 0 1,-1 v -5 a 1,1 0 0 0 -1,-1 z m -1,5 h -3 v -3 h 3 z m 9,-5 h -5 a 1,1 0 0 0 -1,1 v 5 a 1,1 0 0 0 1,1 h 5 a 1,1 0 0 0 1,-1 v -5 a 1,1 0 0 0 -1,-1 z m -1,5 h -3 v -3 h 3 z m 9,-5 h -5 a 1,1 0 0 0 -1,1 v 5 a 1,1 0 0 0 1,1 h 5 a 1,1 0 0 0 1,-1 v -5 a 1,1 0 0 0 -1,-1 z m -1,5 h -3 v -3 h 3 z m 9,-5 h -5 a 1,1 0 0 0 -1,1 v 5 a 1,1 0 0 0 1,1 h 5 a 1,1 0 0 0 1,-1 v -5 a 1,1 0 0 0 -1,-1 z m -1,5 h -3 v -3 h 3 z m 9,-5 h -5 a 1,1 0 0 0 -1,1 v 5 a 1,1 0 0 0 1,1 h 5 a 1,1 0 0 0 1,-1 v -5 a 1,1 0 0 0 -1,-1 z m -1,5 h -3 v -3 h 3 z M 11,36 H 6 a 1,1 0 0 0 -1,1 v 5 a 1,1 0 0 0 1,1 h 5 a 1,1 0 0 0 1,-1 v -5 a 1,1 0 0 0 -1,-1 z m -1,5 H 7 v -3 h 3 z m 9,-5 h -5 a 1,1 0 0 0 -1,1 v 5 a 1,1 0 0 0 1,1 h 5 a 1,1 0 0 0 1,-1 v -5 a 1,1 0 0 0 -1,-1 z m -1,5 h -3 v -3 h 3 z m 9,-5 h -5 a 1,1 0 0 0 -1,1 v 5 a 1,1 0 0 0 1,1 h 5 a 1,1 0 0 0 1,-1 v -5 a 1,1 0 0 0 -1,-1 z m -1,5 h -3 v -3 h 3 z m 9,-5 h -5 a 1,1 0 0 0 -1,1 v 5 a 1,1 0 0 0 1,1 h 5 a 1,1 0 0 0 1,-1 v -5 a 1,1 0 0 0 -1,-1 z m -1,5 h -3 v -3 h 3 z m 9,-5 h -5 a 1,1 0 0 0 -1,1 v 5 a 1,1 0 0 0 1,1 h 5 a 1,1 0 0 0 1,-1 v -5 a 1,1 0 0 0 -1,-1 z m -1,5 h -3 v -3 h 3 z m 9,-5 h -5 a 1,1 0 0 0 -1,1 v 5 a 1,1 0 0 0 1,1 h 5 a 1,1 0 0 0 1,-1 v -5 a 1,1 0 0 0 -1,-1 z m -1,5 h -3 v -3 h 3 z M 11,44 H 6 a 1,1 0 0 0 -1,1 v 5 a 1,1 0 0 0 1,1 h 5 a 1,1 0 0 0 1,-1 v -5 a 1,1 0 0 0 -1,-1 z m -1,5 H 7 v -3 h 3 z m 9,-5 h -5 a 1,1 0 0 0 -1,1 v 5 a 1,1 0 0 0 1,1 h 5 a 1,1 0 0 0 1,-1 v -5 a 1,1 0 0 0 -1,-1 z m -1,5 h -3 v -3 h 3 z m 9,-5 h -5 a 1,1 0 0 0 -1,1 v 5 a 1,1 0 0 0 1,1 h 5 a 1,1 0 0 0 1,-1 v -5 a 1,1 0 0 0 -1,-1 z m -1,5 h -3 v -3 h 3 z m 9,-5 h -5 a 1,1 0 0 0 -1,1 v 5 a 1,1 0 0 0 1,1 h 5 a 1,1 0 0 0 1,-1 v -5 a 1,1 0 0 0 -1,-1 z m -1,5 h -3 v -3 h 3 z m 9,-5 h -5 a 1,1 0 0 0 -1,1 v 5 a 1,1 0 0 0 1,1 h 5 a 1,1 0 0 0 1,-1 v -5 a 1,1 0 0 0 -1,-1 z m -1,5 h -3 v -3 h 3 z"
       id="path2" />
  </g>
</svg>
