<?xml version="1.0" encoding="UTF-8" standalone="no"?>
<svg
   xmlns:dc="http://purl.org/dc/elements/1.1/"
   xmlns:cc="http://creativecommons.org/ns#"
   xmlns:rdf="http://www.w3.org/1999/02/22-rdf-syntax-ns#"
   xmlns:svg="http://www.w3.org/2000/svg"
   xmlns="http://www.w3.org/2000/svg"
   version="1.1"
   id="Layer_1"
   x="0px"
   y="0px"
   viewBox="-49 77 388 468"
   xml:space="preserve"
   width="388"
   height="468"><metadata
   id="metadata35"><rdf:RDF><cc:Work
       rdf:about=""><dc:format>image/svg+xml</dc:format><dc:type
         rdf:resource="http://purl.org/dc/dcmitype/StillImage" /><dc:title></dc:title></cc:Work></rdf:RDF></metadata><defs
   id="defs33" />
<g
   id="g28"
   transform="translate(-62,-22)">
	<g
   id="g26">
		<g
   id="g4">
			<path
   d="M 397,567 H 17 c -2.2,0 -4,-1.8 -4,-4 V 163 c 0,-2.2 1.8,-4 4,-4 h 80 c 2.2,0 4,1.8 4,4 0,2.2 -1.8,4 -4,4 H 21 V 559 H 393 V 167 h -76 c -2.2,0 -4,-1.8 -4,-4 0,-2.2 1.8,-4 4,-4 h 80 c 2.2,0 4,1.8 4,4 v 400 c 0,2.2 -1.8,4 -4,4 z"
   id="path2" />
		</g>
		<g
   id="g8">
			<path
   d="M 359,527 H 55 c -2.2,0 -4,-1.8 -4,-4 V 203 c 0,-2.2 1.8,-4 4,-4 h 42 c 2.2,0 4,1.8 4,4 0,2.2 -1.8,4 -4,4 H 59 V 519 H 355 V 207 h -38 c -2.2,0 -4,-1.8 -4,-4 0,-2.2 1.8,-4 4,-4 h 42 c 2.2,0 4,1.8 4,4 v 320 c 0,2.2 -1.8,4 -4,4 z"
   id="path6" />
		</g>
		<g
   id="g12">
			<path
   d="M 317,227 H 97 c -2.2,0 -4,-1.8 -4,-4 v -80 c 0,-2.2 1.8,-4 4,-4 h 66.2 c 2,-22.4 20.9,-40 43.8,-40 22.9,0 41.8,17.6 43.8,40 H 317 c 2.2,0 4,1.8 4,4 v 80 c 0,2.2 -1.8,4 -4,4 z m -216,-8 h 212 v -72 h -66 c -2.2,0 -4,-1.8 -4,-4 0,-19.9 -16.1,-36 -36,-36 -19.9,0 -36,16.1 -36,36 0,2.2 -1.8,4 -4,4 h -66 z"
   id="path10" />
		</g>
		<g
   id="g16">
			<path
   d="M 359,527 H 55 c -2.2,0 -4,-1.8 -4,-4 V 203 c 0,-2.2 1.8,-4 4,-4 h 42 c 2.2,0 4,1.8 4,4 0,2.2 -1.8,4 -4,4 H 59 V 519 H 355 V 207 h -38 c -2.2,0 -4,-1.8 -4,-4 0,-2.2 1.8,-4 4,-4 h 42 c 2.2,0 4,1.8 4,4 v 320 c 0,2.2 -1.8,4 -4,4 z"
   id="path14" />
		</g>
		<g
   id="g20">
			<path
   d="m 207,197 c -13.2,0 -24,-10.8 -24,-24 0,-13.2 10.8,-24 24,-24 13.2,0 24,10.8 24,24 0,13.2 -10.8,24 -24,24 z m 0,-40 c -8.8,0 -16,7.2 -16,16 0,8.8 7.2,16 16,16 8.8,0 16,-7.2 16,-16 0,-8.8 -7.2,-16 -16,-16 z"
   id="path18" />
		</g>
		<g
   id="g24">
			<path
   d="m 157,467 c -0.1,0 -0.1,0 -0.2,0 -1.3,-0.1 -2.5,-0.8 -3.2,-1.9 l -30,-50 c -1.1,-1.9 -0.5,-4.4 1.4,-5.5 1.9,-1.1 4.4,-0.5 5.5,1.4 l 27,44.9 126.4,-165.3 c 1.3,-1.8 3.9,-2.1 5.6,-0.7 1.8,1.3 2.1,3.9 0.7,5.6 l -130,170 c -0.8,0.9 -2,1.5 -3.2,1.5 z"
   id="path22" />
		</g>
	</g>
</g>
</svg>
