<?xml version="1.0" encoding="UTF-8" standalone="no"?>
<svg
   xmlns:dc="http://purl.org/dc/elements/1.1/"
   xmlns:cc="http://creativecommons.org/ns#"
   xmlns:rdf="http://www.w3.org/1999/02/22-rdf-syntax-ns#"
   xmlns:svg="http://www.w3.org/2000/svg"
   xmlns="http://www.w3.org/2000/svg"
   version="1.1"
   id="Layer_1"
   x="0px"
   y="0px"
   viewBox="-257 337 81 59.200001"
   xml:space="preserve"
   width="81"
   height="59.200001"><metadata
   id="metadata21"><rdf:RDF><cc:Work
       rdf:about=""><dc:format>image/svg+xml</dc:format><dc:type
         rdf:resource="http://purl.org/dc/dcmitype/StillImage" /><dc:title></dc:title></cc:Work></rdf:RDF></metadata><defs
   id="defs19" />
<g
   id="g14"
   transform="translate(-7.6,-18.4)">
	<path
   d="m -209,395.4 c -7.4,0 -13.8,8.7 -13.8,18.7 v 0.5 h 27.7 V 414 c -0.1,-9.9 -6.5,-18.6 -13.9,-18.6 z m -12.8,18.1 c 0.2,-9.2 6.1,-17.2 12.8,-17.2 6.7,0 12.6,8 12.8,17.2 0,0 -25.6,0 -25.6,0 z"
   id="path2" />
	<path
   d="m -209,394.2 c 5.2,0 9.5,-4.2 9.5,-9.5 0,-5.2 -4.2,-9.5 -9.5,-9.5 -5.3,0 -9.5,4.2 -9.5,9.5 0,5.2 4.3,9.5 9.5,9.5 z m 0,-18 c 4.7,0 8.5,3.8 8.5,8.5 0,4.7 -3.8,8.5 -8.5,8.5 -4.7,0 -8.5,-3.8 -8.5,-8.5 0,-4.7 3.8,-8.5 8.5,-8.5 z"
   id="path4" />
	<path
   d="m -221.8,394.3 c 0,-10 -6.5,-18.7 -13.8,-18.7 -7.4,0 -13.8,8.7 -13.8,18.7 v 0.5 h 27.7 v -0.5 z m -26.7,-0.5 c 0.2,-9.2 6.1,-17.2 12.8,-17.2 6.7,0 12.6,8 12.8,17.2 z"
   id="path6" />
	<path
   d="m -235.7,374.4 c 5.2,0 9.5,-4.2 9.5,-9.5 0,-5.2 -4.2,-9.5 -9.5,-9.5 -5.2,0 -9.5,4.2 -9.5,9.5 0.1,5.2 4.3,9.5 9.5,9.5 z m 0,-17.9 c 4.7,0 8.5,3.8 8.5,8.5 0,4.7 -3.8,8.5 -8.5,8.5 -4.7,0 -8.5,-3.8 -8.5,-8.5 0.1,-4.7 3.9,-8.5 8.5,-8.5 z"
   id="path8" />
	<path
   d="m -182.3,375.6 c -7.4,0 -13.8,8.7 -13.8,18.7 v 0.5 h 27.7 v -0.5 c -0.1,-10 -6.6,-18.7 -13.9,-18.7 z m -12.9,18.2 c 0.2,-9.2 6.1,-17.2 12.8,-17.2 6.7,0 12.6,8 12.8,17.2 z"
   id="path10" />
	<path
   d="m -182.3,374.4 c 5.2,0 9.5,-4.2 9.5,-9.5 0,-5.2 -4.2,-9.5 -9.5,-9.5 -5.3,0 -9.5,4.2 -9.5,9.5 0,5.2 4.2,9.5 9.5,9.5 z m 0,-17.9 c 4.7,0 8.5,3.8 8.5,8.5 0,4.7 -3.8,8.5 -8.5,8.5 -4.7,0 -8.5,-3.8 -8.5,-8.5 0,-4.7 3.8,-8.5 8.5,-8.5 z"
   id="path12" />
</g>
</svg>
