<svg xmlns="http://www.w3.org/2000/svg" xmlns:xlink="http://www.w3.org/1999/xlink" xml:space="preserve" version="1.1" style="shape-rendering:geometricPrecision;text-rendering:geometricPrecision;image-rendering:optimizeQuality;" viewBox="0 0 846.66 1058.325" x="0px" y="0px" fill-rule="evenodd" clip-rule="evenodd"><defs><style type="text/css">
   
    .fil0 {fill:black}
   
  </style></defs><g><path class="fil0" d="M423.33 240.46c40.2,0 72.79,39.81 72.79,88.92 0,49.11 -32.59,88.93 -72.79,88.93 -40.2,0 -72.79,-39.82 -72.79,-88.93 0,-49.11 32.59,-88.92 72.79,-88.92zm242.6 -47.59c34.27,0 62.04,33.93 62.04,75.79 0,41.86 -27.77,75.79 -62.04,75.79 -34.26,0 -62.04,-33.93 -62.04,-75.79 0,-41.86 27.78,-75.79 62.04,-75.79zm-147.73 199.06l90.89 -50.04 36.22 73.14 20.62 -31.14 20.63 31.14 36.21 -73.14 90.9 50.04 9.26 153.2 -48.43 0 -8.5 -66.98 -9.09 66.98 -155.94 0 6.57 108.65 -56.82 0 -9.97 -78.6 -10.67 78.6 -213.5 0 -10.67 -78.6 -9.97 78.6 -56.81 0 6.56 -108.65 -155.94 0 -9.09 -66.98 -8.5 66.98 -48.42 0 9.26 -153.2 90.89 -50.04 36.21 73.14 20.63 -31.14 20.62 31.14 36.22 -73.14 90.9 50.04 2.28 37.64 25.89 -14.26 42.49 85.82 24.2 -36.55 24.2 36.55 42.49 -85.82 25.9 14.26 2.28 -37.64zm-337.47 -199.06c34.26,0 62.04,33.93 62.04,75.79 0,41.86 -27.78,75.79 -62.04,75.79 -34.27,0 -62.04,-33.93 -62.04,-75.79 0,-41.86 27.77,-75.79 62.04,-75.79z"/></g><text x="0" y="861.66" fill="#000000" font-size="5px" font-weight="bold" font-family="'Helvetica Neue', Helvetica, Arial-Unicode, Arial, Sans-serif">Created by fahim annabil</text><text x="0" y="866.66" fill="#000000" font-size="5px" font-weight="bold" font-family="'Helvetica Neue', Helvetica, Arial-Unicode, Arial, Sans-serif">from the Noun Project</text></svg>