<?xml version="1.0" encoding="utf-8"?>
<!-- Generator: Adobe Illustrator 19.0.0, SVG Export Plug-In . SVG Version: 6.00 Build 0)  -->
<svg version="1.1" id="Layer_1" xmlns="http://www.w3.org/2000/svg" xmlns:xlink="http://www.w3.org/1999/xlink" x="0px" y="0px"
	 viewBox="-273 357 64 80" style="enable-background:new -273 357 64 80;" xml:space="preserve">
<path d="M-224.2,388.6c0.1-0.3,0.1-0.7,0.1-1c0-3.1-2.5-6-7-7.8c0-0.4,0-0.9,0-1.3c-0.4-2.9-2.8-6-6.3-8.4l0,0
	c-5.6-3.7-11.9-4.1-14.6-1c-0.9,1.2-1.3,2.6-1,4.1c0.4,2.1,1.5,4.1,3,5.6c-6.2,1.6-10,5-10,8.8c0,0.3,0,0.7,0.1,1
	c-4.2,2-7,6.1-7.2,10.8c0.1,2.5,1.3,4.9,3.3,6.5c3.7,3.3,10,5.1,17,5.1c1.6,0,3.2-0.1,4.8-0.3c12.8-1.5,24.6-3.4,26.8-11
	C-214.1,395.9-218.9,391.2-224.2,388.6z M-251,372.9c-0.2-0.9,0-1.8,0.6-2.6c1-1,2.4-1.5,3.8-1.4c2.9,0.1,5.7,1.1,8.1,2.8l0,0
	c3,2,5.1,4.7,5.4,7.1c0.2,0.9,0,1.8-0.6,2.6c-1.9,2.3-7.3,1.6-11.8-1.4C-248.6,378-250.6,375.3-251,372.9z M-248.3,380.4
	c0.5,0.4,1,0.8,1.6,1.2c2.7,1.9,5.9,3,9.1,3.1c2,0.1,4-0.6,5.4-2.1c0.2-0.3,0.4-0.5,0.6-0.8c3.5,1.5,5.5,3.7,5.5,5.9
	c0,0.4-0.1,0.8-0.2,1.3c-1.3,3.8-8,6.6-15.8,6.6s-14.5-2.8-15.8-6.6c-0.1-0.4-0.2-0.8-0.2-1.2C-258,384.5-254.1,381.7-248.3,380.4
	L-248.3,380.4z M-217.1,399.2c-1.9,6.5-13.4,8.3-25.1,9.6c-8.3,0.9-16.1-0.7-20.2-4.3c-1.6-1.2-2.5-3-2.6-5c0.2-3.8,2.4-7.2,5.8-8.9
	c2.2,4.1,9.2,7,17.2,7c8,0,15-2.9,17.2-7C-220.1,392.8-216.4,396.9-217.1,399.2z"/>
</svg>
