<?xml version="1.0" encoding="utf-8"?>
<!-- Generator: Adobe Illustrator 19.0.0, SVG Export Plug-In . SVG Version: 6.00 Build 0)  -->
<svg version="1.1" id="Layer_1" xmlns="http://www.w3.org/2000/svg" xmlns:xlink="http://www.w3.org/1999/xlink" x="0px" y="0px"
	 viewBox="-49 77 512 640" style="enable-background:new -49 77 512 640;" xml:space="preserve">
<g>
	<g>
		<g>
			<path d="M397,567H17c-2.2,0-4-1.8-4-4V163c0-2.2,1.8-4,4-4h80c2.2,0,4,1.8,4,4s-1.8,4-4,4H21v392h372V167h-76c-2.2,0-4-1.8-4-4
				s1.8-4,4-4h80c2.2,0,4,1.8,4,4v400C401,565.2,399.2,567,397,567z"/>
		</g>
		<g>
			<path d="M359,527H55c-2.2,0-4-1.8-4-4V203c0-2.2,1.8-4,4-4h42c2.2,0,4,1.8,4,4s-1.8,4-4,4H59v312h296V207h-38c-2.2,0-4-1.8-4-4
				s1.8-4,4-4h42c2.2,0,4,1.8,4,4v320C363,525.2,361.2,527,359,527z"/>
		</g>
		<g>
			<path d="M317,227H97c-2.2,0-4-1.8-4-4v-80c0-2.2,1.8-4,4-4h66.2c2-22.4,20.9-40,43.8-40s41.8,17.6,43.8,40H317c2.2,0,4,1.8,4,4
				v80C321,225.2,319.2,227,317,227z M101,219h212v-72h-66c-2.2,0-4-1.8-4-4c0-19.9-16.1-36-36-36c-19.9,0-36,16.1-36,36
				c0,2.2-1.8,4-4,4h-66V219z"/>
		</g>
		<g>
			<path d="M359,527H55c-2.2,0-4-1.8-4-4V203c0-2.2,1.8-4,4-4h42c2.2,0,4,1.8,4,4s-1.8,4-4,4H59v312h296V207h-38c-2.2,0-4-1.8-4-4
				s1.8-4,4-4h42c2.2,0,4,1.8,4,4v320C363,525.2,361.2,527,359,527z"/>
		</g>
		<g>
			<path d="M207,197c-13.2,0-24-10.8-24-24s10.8-24,24-24c13.2,0,24,10.8,24,24S220.2,197,207,197z M207,157c-8.8,0-16,7.2-16,16
				s7.2,16,16,16c8.8,0,16-7.2,16-16S215.8,157,207,157z"/>
		</g>
		<g>
			<path d="M157,467c-0.1,0-0.1,0-0.2,0c-1.3-0.1-2.5-0.8-3.2-1.9l-30-50c-1.1-1.9-0.5-4.4,1.4-5.5c1.9-1.1,4.4-0.5,5.5,1.4l27,44.9
				l126.4-165.3c1.3-1.8,3.9-2.1,5.6-0.7c1.8,1.3,2.1,3.9,0.7,5.6l-130,170C159.4,466.4,158.2,467,157,467z"/>
		</g>
	</g>
</g>
</svg>
