<?xml version="1.0" encoding="utf-8"?>
<!-- Generator: Adobe Illustrator 19.0.0, SVG Export Plug-In . SVG Version: 6.00 Build 0)  -->
<svg version="1.1" id="Layer_1" xmlns="http://www.w3.org/2000/svg" xmlns:xlink="http://www.w3.org/1999/xlink" x="0px" y="0px"
	 viewBox="-257 337 96 120" style="enable-background:new -257 337 96 120;" xml:space="preserve">
<g>
	<path d="M-209,395.4c-7.4,0-13.8,8.7-13.8,18.7v0.5h27.7V414C-195.2,404.1-201.6,395.4-209,395.4z M-221.8,413.5
		c0.2-9.2,6.1-17.2,12.8-17.2c6.7,0,12.6,8,12.8,17.2C-196.2,413.5-221.8,413.5-221.8,413.5z"/>
	<path d="M-209,394.2c5.2,0,9.5-4.2,9.5-9.5c0-5.2-4.2-9.5-9.5-9.5s-9.5,4.2-9.5,9.5C-218.5,389.9-214.2,394.2-209,394.2z
		 M-209,376.2c4.7,0,8.5,3.8,8.5,8.5c0,4.7-3.8,8.5-8.5,8.5c-4.7,0-8.5-3.8-8.5-8.5C-217.5,380-213.7,376.2-209,376.2z"/>
	<path d="M-221.8,394.3c0-10-6.5-18.7-13.8-18.7c-7.4,0-13.8,8.7-13.8,18.7v0.5h27.7V394.3z M-248.5,393.8
		c0.2-9.2,6.1-17.2,12.8-17.2c6.7,0,12.6,8,12.8,17.2H-248.5z"/>
	<path d="M-235.7,374.4c5.2,0,9.5-4.2,9.5-9.5c0-5.2-4.2-9.5-9.5-9.5c-5.2,0-9.5,4.2-9.5,9.5C-245.1,370.1-240.9,374.4-235.7,374.4z
		 M-235.7,356.5c4.7,0,8.5,3.8,8.5,8.5c0,4.7-3.8,8.5-8.5,8.5c-4.7,0-8.5-3.8-8.5-8.5C-244.1,360.3-240.3,356.5-235.7,356.5z"/>
	<path d="M-182.3,375.6c-7.4,0-13.8,8.7-13.8,18.7v0.5h27.7v-0.5C-168.5,384.3-175,375.6-182.3,375.6z M-195.2,393.8
		c0.2-9.2,6.1-17.2,12.8-17.2c6.7,0,12.6,8,12.8,17.2H-195.2z"/>
	<path d="M-182.3,374.4c5.2,0,9.5-4.2,9.5-9.5c0-5.2-4.2-9.5-9.5-9.5s-9.5,4.2-9.5,9.5C-191.8,370.1-187.6,374.4-182.3,374.4z
		 M-182.3,356.5c4.7,0,8.5,3.8,8.5,8.5c0,4.7-3.8,8.5-8.5,8.5c-4.7,0-8.5-3.8-8.5-8.5C-190.8,360.3-187,356.5-182.3,356.5z"/>
</g>
</svg>
