<svg xmlns="http://www.w3.org/2000/svg" viewBox="0 0 64 80" x="0px" y="0px"><g data-name="31 Calendar"><path d="M61.5181,49.4277,54.9814,15.81l-.0009-.0013A3.0007,3.0007,0,0,0,52,13H47V11a2.0059,2.0059,0,0,0-2-2H41a2.0059,2.0059,0,0,0-2,2v2H18V11a2.0059,2.0059,0,0,0-2-2H12a2.0059,2.0059,0,0,0-2,2v2H5a3.0088,3.0088,0,0,0-3,3V52a3.0088,3.0088,0,0,0,3,3H52a3.0016,3.0016,0,0,0,2.8148-2h3.7584A3.0176,3.0176,0,0,0,61.5181,49.4277ZM41,11h4v5c.04,2.59-4.04,2.59-4,0ZM12,11h4v5c.04,2.59-4.04,2.59-4,0ZM5,15h5v1a4,4,0,0,0,8,0V15H39v1a4,4,0,0,0,8,0V15h5a1.0029,1.0029,0,0,1,1,1v8H4V16A1.0029,1.0029,0,0,1,5,15ZM52,53H5a1.0029,1.0029,0,0,1-1-1V26H53V52A1.0029,1.0029,0,0,1,52,53Zm6.5732-2H55V26.3828L59.5552,49.81A1.0063,1.0063,0,0,1,58.5732,51ZM21.5,22h14a2.5,2.5,0,0,0,0-5h-14A2.5,2.5,0,0,0,21.5,22Zm0-3h14a.5.5,0,0,1,0,1h-14A.5.5,0,0,1,21.5,19ZM19,28H14a1,1,0,0,0-1,1v5a1,1,0,0,0,1,1h5a1,1,0,0,0,1-1V29A1,1,0,0,0,19,28Zm-1,5H15V30h3Zm9-5H22a1,1,0,0,0-1,1v5a1,1,0,0,0,1,1h5a1,1,0,0,0,1-1V29A1,1,0,0,0,27,28Zm-1,5H23V30h3Zm9-5H30a1,1,0,0,0-1,1v5a1,1,0,0,0,1,1h5a1,1,0,0,0,1-1V29A1,1,0,0,0,35,28Zm-1,5H31V30h3Zm9-5H38a1,1,0,0,0-1,1v5a1,1,0,0,0,1,1h5a1,1,0,0,0,1-1V29A1,1,0,0,0,43,28Zm-1,5H39V30h3Zm9-5H46a1,1,0,0,0-1,1v5a1,1,0,0,0,1,1h5a1,1,0,0,0,1-1V29A1,1,0,0,0,51,28Zm-1,5H47V30h3ZM11,36H6a1,1,0,0,0-1,1v5a1,1,0,0,0,1,1h5a1,1,0,0,0,1-1V37A1,1,0,0,0,11,36Zm-1,5H7V38h3Zm9-5H14a1,1,0,0,0-1,1v5a1,1,0,0,0,1,1h5a1,1,0,0,0,1-1V37A1,1,0,0,0,19,36Zm-1,5H15V38h3Zm9-5H22a1,1,0,0,0-1,1v5a1,1,0,0,0,1,1h5a1,1,0,0,0,1-1V37A1,1,0,0,0,27,36Zm-1,5H23V38h3Zm9-5H30a1,1,0,0,0-1,1v5a1,1,0,0,0,1,1h5a1,1,0,0,0,1-1V37A1,1,0,0,0,35,36Zm-1,5H31V38h3Zm9-5H38a1,1,0,0,0-1,1v5a1,1,0,0,0,1,1h5a1,1,0,0,0,1-1V37A1,1,0,0,0,43,36Zm-1,5H39V38h3Zm9-5H46a1,1,0,0,0-1,1v5a1,1,0,0,0,1,1h5a1,1,0,0,0,1-1V37A1,1,0,0,0,51,36Zm-1,5H47V38h3ZM11,44H6a1,1,0,0,0-1,1v5a1,1,0,0,0,1,1h5a1,1,0,0,0,1-1V45A1,1,0,0,0,11,44Zm-1,5H7V46h3Zm9-5H14a1,1,0,0,0-1,1v5a1,1,0,0,0,1,1h5a1,1,0,0,0,1-1V45A1,1,0,0,0,19,44Zm-1,5H15V46h3Zm9-5H22a1,1,0,0,0-1,1v5a1,1,0,0,0,1,1h5a1,1,0,0,0,1-1V45A1,1,0,0,0,27,44Zm-1,5H23V46h3Zm9-5H30a1,1,0,0,0-1,1v5a1,1,0,0,0,1,1h5a1,1,0,0,0,1-1V45A1,1,0,0,0,35,44Zm-1,5H31V46h3Zm9-5H38a1,1,0,0,0-1,1v5a1,1,0,0,0,1,1h5a1,1,0,0,0,1-1V45A1,1,0,0,0,43,44Zm-1,5H39V46h3Z"/></g><text x="0" y="79" fill="#000000" font-size="5px" font-weight="bold" font-family="'Helvetica Neue', Helvetica, Arial-Unicode, Arial, Sans-serif">Created by Anconer</text><text x="0" y="84" fill="#000000" font-size="5px" font-weight="bold" font-family="'Helvetica Neue', Helvetica, Arial-Unicode, Arial, Sans-serif">from the Noun Project</text></svg>