<?xml version="1.0" encoding="UTF-8" standalone="no"?>
<svg
   xmlns:dc="http://purl.org/dc/elements/1.1/"
   xmlns:cc="http://creativecommons.org/ns#"
   xmlns:rdf="http://www.w3.org/1999/02/22-rdf-syntax-ns#"
   xmlns:svg="http://www.w3.org/2000/svg"
   xmlns="http://www.w3.org/2000/svg"
   version="1.1"
   id="Layer_1"
   x="0px"
   y="0px"
   viewBox="-273 357 52.058495 43.976994"
   xml:space="preserve"
   width="52.058495"
   height="43.976994"><metadata
   id="metadata9"><rdf:RDF><cc:Work
       rdf:about=""><dc:format>image/svg+xml</dc:format><dc:type
         rdf:resource="http://purl.org/dc/dcmitype/StillImage" /><dc:title></dc:title></cc:Work></rdf:RDF></metadata><defs
   id="defs7" />
<path
   d="m -230.1,378.57699 c 0.1,-0.3 0.1,-0.7 0.1,-1 0,-3.1 -2.5,-6 -7,-7.8 0,-0.4 0,-0.9 0,-1.3 -0.4,-2.9 -2.8,-6 -6.3,-8.4 v 0 c -5.6,-3.7 -11.9,-4.1 -14.6,-1 -0.9,1.2 -1.3,2.6 -1,4.1 0.4,2.1 1.5,4.1 3,5.6 -6.2,1.6 -10,5 -10,8.8 0,0.3 0,0.7 0.1,1 -4.2,2 -7,6.1 -7.2,10.8 0.1,2.5 1.3,4.9 3.3,6.5 3.7,3.3 10,5.1 17,5.1 1.6,0 3.2,-0.1 4.8,-0.3 12.8,-1.5 24.6,-3.4 26.8,-11 1.1,-3.8 -3.7,-8.5 -9,-11.1 z m -26.8,-15.7 c -0.2,-0.9 0,-1.8 0.6,-2.6 1,-1 2.4,-1.5 3.8,-1.4 2.9,0.1 5.7,1.1 8.1,2.8 v 0 c 3,2 5.1,4.7 5.4,7.1 0.2,0.9 0,1.8 -0.6,2.6 -1.9,2.3 -7.3,1.6 -11.8,-1.4 -3.1,-2 -5.1,-4.7 -5.5,-7.1 z m 2.7,7.5 c 0.5,0.4 1,0.8 1.6,1.2 2.7,1.9 5.9,3 9.1,3.1 2,0.1 4,-0.6 5.4,-2.1 0.2,-0.3 0.4,-0.5 0.6,-0.8 3.5,1.5 5.5,3.7 5.5,5.9 0,0.4 -0.1,0.8 -0.2,1.3 -1.3,3.8 -8,6.6 -15.8,6.6 -7.8,0 -14.5,-2.8 -15.8,-6.6 -0.1,-0.4 -0.2,-0.8 -0.2,-1.2 0.1,-3.3 4,-6.1 9.8,-7.4 z m 31.2,18.8 c -1.9,6.5 -13.4,8.3 -25.1,9.6 -8.3,0.9 -16.1,-0.7 -20.2,-4.3 -1.6,-1.2 -2.5,-3 -2.6,-5 0.2,-3.8 2.4,-7.2 5.8,-8.9 2.2,4.1 9.2,7 17.2,7 8,0 15,-2.9 17.2,-7 4.7,2.2 8.4,6.3 7.7,8.6 z"
   id="path2" />
</svg>
